PathFileType	4	(X/Y/Z)	0_1_33_p1_0-333.trc
DataRate	CameraRate	NumFrames	NumMarkers	Units	OrigDataRate	OrigDataStartFrame	OrigNumFrames
60	60	7	27	m	60	166	333
Frame#	Time	RHip			RKnee			RAnkle			RBigToe			RSmallToe			RHeel			LHip			LKnee			LAnkle			LBigToe			LSmallToe			LHeel			Neck			Head			Nose			RShoulder			RElbow			RWrist			RThumb			RIndex			RPinky			LShoulder			LElbow			LWrist			LThumb			LIndex			LPinky		
		X1	Y1	Z1	X2	Y2	Z2	X3	Y3	Z3	X4	Y4	Z4	X5	Y5	Z5	X6	Y6	Z6	X7	Y7	Z7	X8	Y8	Z8	X9	Y9	Z9	X10	Y10	Z10	X11	Y11	Z11	X12	Y12	Z12	X13	Y13	Z13	X14	Y14	Z14	X15	Y15	Z15	X16	Y16	Z16	X17	Y17	Z17	X18	Y18	Z18	X19	Y19	Z19	X20	Y20	Z20	X21	Y21	Z21	X22	Y22	Z22	X23	Y23	Z23	X24	Y24	Z24	X25	Y25	Z25	X26	Y26	Z26	X27	Y27	Z27
167	2.783333333333333	0.07033332911763092	0.21593691125037281	0.017163829843642373	0.0920651527221283	0.1720396960188935	-0.3771489218375457	0.14511696677042507	0.2695132499006748	-0.7821837219454534	0.17301380871747002	0.06136569801954148	-0.789383351219113	0.10591418734371172	0.09061708427971908	-0.7995461826495414	0.16075456342689085	0.30900573479050686	-0.8269507328673508	0.256293710603505	0.17696776694767946	0.04018323967861607	0.2972415033651013	0.12013592277360152	-0.34475684782340854	0.3117748746466088	0.20143702949272885	-0.758417346383106	0.2879197756547187	-0.00568968285581058	-0.7345058871694686	0.3403339425566586	0.045984294468084906	-0.7615266791452485	0.3296309967110201	0.28969613007026335	-0.8441841589689394	0.1591204170510576	0.30683129992910957	0.5110736780747264	0.12381023720879954	0.29866839072624746	0.7585029736022716	0.13963282877971717	0.2466189984820032	0.6299989891891773	0.007117326087724847	0.3209711317860422	0.43748502870557865	0.023667519175188296	0.13865473882396065	0.25152839539258215	0.24840225716908138	0.12885994632391815	0.2791084068972254	0.3241681106515295	0.1500806368266546	0.3305827067501491	0.3371555341516885	0.15091675211736205	0.3180578898937483	0.3288522751516339	0.15808085991308093	0.2941408339241225	0.30480741858060684	0.30765739190611585	0.4708573873705978	0.3272142374234524	0.12466988956902506	0.3067290262951035	0.09247327938316181	0.13054861487408384	0.31906639190769637	0.022000061714822983	0.18434974904287263	0.27078181015910685	0.007057988319952031	0.15487672473906564	0.25931321992617196	0.03901731267632662	0.14621149366037298	0.2525399970490117
168	2.8	0.07035287043133637	0.21575697198254498	0.018032137365303135	0.09134807997098543	0.17391988806124226	-0.3731494898778567	0.14369930946915624	0.2691507556330306	-0.7805114701359194	0.17190890432045428	0.06619087554338374	-0.7901446363439392	0.10457981657210873	0.08554401184715982	-0.79612588181911	0.15812205228374843	0.30747723669856586	-0.8247355563653895	0.2563709680936691	0.17708023086189612	0.04224221659525716	0.2963858762882837	0.11495101359694467	-0.33876269222032707	0.3112593657210749	0.20090114913591445	-0.757478175215984	0.28982897437165606	-0.001659806521475592	-0.7358701077775317	0.34121142718670316	0.04824146931105198	-0.7624449692726046	0.3294883994727874	0.28932098720021593	-0.8434987000167999	0.1613805668615843	0.3102661297925982	0.5115477288583059	0.1279871492705418	0.29314075135394235	0.7601847069936787	0.1454396978320837	0.24513529807128487	0.6324924865600248	0.00953588619854365	0.3150724091489351	0.4417486990634568	0.027015230889413447	0.13492024168489794	0.25398530857445906	0.25132691079118996	0.12101960401781132	0.2828195661998698	0.32604662923734334	0.1530058876186861	0.32958883806150646	0.339069916044187	0.15344820064909281	0.3163815373608566	0.33026141322463864	0.16076783794853386	0.29299608928245446	0.3064352878457105	0.3045765623238551	0.47135776639674487	0.32909377087494346	0.12421247807274498	0.3071647844801483	0.09410521577171331	0.13457259439268815	0.3193151771001096	0.02092886799180289	0.18628438824473473	0.27348297821015727	0.00943978537174553	0.15815185858795033	0.2613479732250671	0.04266324877989584	0.14119979559346751	0.25583602449309095
169	2.816666666666667	0.07105510397605193	0.21553734353888737	0.019577307395940755	0.0904761234388316	0.17639844285673398	-0.37066532186340406	0.1422957191128391	0.2661066050699177	-0.778393986765287	0.171129703794004	0.07235460936063855	-0.794002114640308	0.10366737336626586	0.08244383453255978	-0.7952303079331533	0.15778325353254818	0.30355278115824386	-0.8229653635343108	0.25641318276348457	0.17715592305634648	0.04339731234672554	0.29647624401056877	0.11100234759142528	-0.33283804995340927	0.310427728870454	0.20046886435935563	-0.7552168175046171	0.2928884405707957	0.00519597287708947	-0.7414950167926524	0.3432614713249658	0.052733833932210074	-0.765742975086418	0.32933452978759165	0.2888528756374336	-0.8425371369312866	0.1645152513228443	0.316383012487338	0.5122155151009686	0.13239639823093535	0.29239041287797435	0.7618345569274577	0.14942184679507034	0.24283719302017434	0.6352410277892563	0.011307699792476094	0.30981679537724216	0.4457730781215764	0.03077084024381332	0.1343266348783183	0.2560427808693349	0.25328205406980897	0.11644525233616218	0.2851415109334795	0.32832115141178964	0.15847988455641632	0.3277255712090136	0.3416940039895681	0.15795399989844577	0.3141939492334039	0.3324405474028565	0.16468434307491314	0.2922061851181611	0.30946350275603646	0.30114058193726584	0.47295288561116866	0.3310771750391181	0.1268578122972546	0.3068495801398288	0.09448376424285211	0.14066924771615608	0.318248516377996	0.02029171998713754	0.18961473943035373	0.27665100288033384	0.012276383617765063	0.16389854862536837	0.2632345585409687	0.04257718563408392	0.14319047778585176	0.25779073654409096
170	2.833333333333333	0.0731607053672982	0.21575387891465042	0.021518703952073837	0.09014810337009987	0.17757541440995184	-0.3693246827082429	0.14146779800052128	0.2627828832882282	-0.7762176836518873	0.17122908590654184	0.07715302410914691	-0.7987187097253001	0.10356544065714084	0.0840644283508869	-0.7977155466162453	0.15859189549714875	0.30003210570140154	-0.8212971585638957	0.25645709662850924	0.17733529705650292	0.04446648790484638	0.2969385107049634	0.11066067981888562	-0.32910911089542005	0.3097126828696374	0.20076854838582853	-0.752182652070736	0.2953223675543556	0.012886013563047553	-0.7489652535951017	0.3450470787328709	0.0567356263600636	-0.7684168145446723	0.3294289465326305	0.2888110148233089	-0.84188612256617	0.16812651680270885	0.3235717826388181	0.512595475080869	0.1368374529052997	0.2951801295421243	0.7640067883182268	0.15137078935719075	0.24047486537473245	0.637616506964362	0.012501891888749115	0.30571176805262085	0.4490487823575997	0.03478378802528106	0.1351611432293333	0.2586102430292907	0.2539953293207491	0.11486774471580295	0.2860493932370049	0.3307720575499442	0.16500815778473513	0.3256107903483991	0.34490361228518596	0.16268462232348246	0.312471754449252	0.3348513330120611	0.1677525962515595	0.2929687958838514	0.3137734957463099	0.29936490291679774	0.4749791890443149	0.33236543466498114	0.1301044466008182	0.30615489716538574	0.09439099278707345	0.14688966134866485	0.31697751375694694	0.020507195947335678	0.1945551525883413	0.27923300879018537	0.014272933543748539	0.16840494135808423	0.26455953492674267	0.04003130716770291	0.1492044915842785	0.25864331490985043
171	2.85	0.07629840250951112	0.21541338897385073	0.02360119812186361	0.09057797553361563	0.176785044193418	-0.36849164556012287	0.14134730773163187	0.2610697765677532	-0.7742250115069229	0.17251035472180903	0.0816578098978439	-0.8041872968104972	0.10414817582893365	0.09048039846102797	-0.8030946843776776	0.15918995105856665	0.2986633315873703	-0.8195752782721155	0.25655056160919754	0.1776613748748053	0.04574111009923329	0.2968963169134007	0.113889206648643	-0.32855234565490965	0.3098048881965739	0.20268522483400872	-0.7501514304359752	0.29662359607866273	0.02042060029750413	-0.7567683516077125	0.3458704698917768	0.058798735867608455	-0.7693310699774409	0.3302594792766354	0.2903463582031039	-0.8425905640071092	0.17208441017732473	0.3295738549740398	0.5123636973603408	0.14109087911158677	0.29794188293965723	0.7667249778821812	0.1523873394645072	0.23750180812722468	0.6400183315664973	0.013637800499346502	0.3021079636290732	0.45134448854338616	0.038492498417759306	0.13459068018845488	0.26196833721312673	0.25424796373835334	0.11351426448362548	0.2873647442771894	0.3328536421562239	0.17055286775975925	0.32423641601835507	0.3483899434525847	0.16504995696818026	0.3124793535274676	0.3371654070739237	0.1678757922221075	0.29535974382655966	0.31867008471376723	0.29840405559104843	0.4768402247842244	0.3328905186966247	0.13171110747575052	0.3056332881107471	0.0951983010067727	0.15249569312452527	0.31634090970963313	0.02268447841610136	0.1989959575259875	0.2810826208092945	0.01595420274052054	0.17063470239769646	0.26475146450937825	0.03842377096149696	0.15231725536880872	0.260269634076208
172	2.8666666666666667	0.07923936699540182	0.2133369216064958	0.026381916432136974	0.09123115914262153	0.17561183493728177	-0.3672182055286461	0.1418158765320675	0.25990755767572665	-0.7722644425609384	0.17453677245455618	0.0870683550332712	-0.8103464872415673	0.10509462269868591	0.09756750370895684	-0.8084912033571361	0.15943712636401966	0.2981564266496625	-0.8180368304237761	0.25672606093089845	0.17781495227916527	0.04758477605396786	0.2961174772633494	0.11804255783926987	-0.33026246240835605	0.31127782418691574	0.20687357601059395	-0.7508226465228798	0.29786240249606116	0.027367634868145106	-0.76425955773271	0.34597468651912694	0.059266724782346986	-0.7692333351403955	0.332157530004041	0.29430198254773143	-0.8453533231470503	0.17657403892127826	0.3328068812701305	0.5119074222945865	0.14506686213193853	0.29775911697896656	0.7695907358492402	0.1536058686834366	0.23355633390637648	0.6428967552817619	0.015512121561765178	0.2987273320092899	0.45314520951023163	0.04110910524683964	0.1317917496222673	0.2654932000713607	0.25492797954750834	0.11022711599324854	0.290433680731342	0.3341234251010516	0.17333256953380452	0.32440837607686757	0.3517448077374529	0.1632551527371314	0.3147712316320381	0.3395670164869039	0.16420660796083145	0.2981424181171489	0.3233193204297347	0.29513922956990885	0.47862709558162486	0.33351367463034165	0.13042423316368856	0.3055346218697292	0.09729262917746362	0.1569828194378425	0.3165812329613783	0.027542385845354747	0.19892556798203914	0.2830715425724547	0.018115630472992694	0.1720784572494982	0.26377217254781066	0.04060915972506209	0.14763963155177556	0.264056463461846
173	2.8833333333333333	0.0811253864332403	0.20972792778646865	0.02992018306340333	0.09162847358821591	0.17530831756782342	-0.36493662719366804	0.14259091493686057	0.2577565504969581	-0.7706810599173229	0.17668891177814974	0.09107835296932905	-0.8149800810969319	0.10598141950822082	0.0997658001948184	-0.8101157146027609	0.15986362762536113	0.29612963836775513	-0.8167458732988194	0.2570926787138634	0.17678796417573883	0.05027706731924078	0.2949244898518074	0.12006766592066923	-0.33241044771741846	0.31431596784119487	0.21293026540013438	-0.7545035882722925	0.29951906286163715	0.03218554646052564	-0.7698377822341624	0.3457921891386009	0.058968516534691456	-0.7688953131425219	0.3346944459404258	0.29951352448602714	-0.849337528010877	0.18095663434176884	0.3335521972284121	0.5119215981152736	0.14885876962890965	0.2941981263044921	0.7723461425276488	0.15552734609486601	0.22881988368296147	0.6459032756645363	0.01870677733534182	0.2961179384451015	0.4552350211543589	0.042612407571302205	0.1276968344049749	0.26898516283279383	0.2564212189257493	0.10530901078998868	0.29452705566571735	0.3346658264177891	0.17252156895951598	0.3260811075492001	0.3545944044452703	0.15765785186219305	0.3184587831441543	0.3419999799669605	0.15730845510854324	0.30009219353723304	0.32739486072050794	0.28795216864301926	0.48066984776165755	0.3351079225005721	0.1253458989808357	0.30599123049804916	0.09974773342803693	0.15991514951756802	0.317173244543559	0.03420630178919494	0.1922220194265747	0.28609247765454504	0.019957798615624016	0.17519934235976217	0.26235103249404157	0.046389104733244535	0.13797244587971297	0.2688214270814529
